# xmcd
#
# Track frame offsets:
#	150
#	11094
#	22600
#	32877
#	45263
#	60619
#	75336
#	88770
#	102044
#	115440
#	128361
#	142678
#
# Disc length: 2092 seconds
#
# Revision: 0
# Processed by: cddbd v1.5.2PL0 Copyright (c) Steve Scherf et al.
# Submitted via: VUPlayer 2.41
#
DISCID=7e082a0c
DTITLE=Donna Wylde - Souvenirs
DYEAR=2004
DGENRE=Country
TTITLE0=SOUVENIRS
TTITLE1=MILLIE
TTITLE2=LOVE BUG
TTITLE3=COME WITH WITH ME
TTITLE4=CLOSER
TTITLE5=I COULDN'T LEAVE YOU IF I TRIED
TTITLE6=NASHVILLE GONE HOLLYWOOD
TTITLE7=CATALOGUE DREAMS
TTITLE8=YOU'LL REMEMBER ME
TTITLE9=THE CRYIN' GAME
TTITLE10=SWEET TALK AND GOOD LIES
TTITLE11=YOU BELONG TO ME
EXTD=
EXTT0=
EXTT1=
EXTT2=
EXTT3=
EXTT4=
EXTT5=
EXTT6=
EXTT7=
EXTT8=
EXTT9=
EXTT10=
EXTT11=
PLAYORDER=
